HIERARCHY
ROOT Hips
{
	OFFSET 0.0000 0.0000 0.0000
	CHANNELS 6 Xposition Yposition Zposition Zrotation Xrotation Yrotation
	JOINT Spine1
	{
		OFFSET -0.0137 5.0038 -0.0537
		CHANNELS 3 Zrotation Xrotation Yrotation
		JOINT Spine2
		{
			OFFSET -0.0000 7.1253 -0.0298
			CHANNELS 3 Zrotation Xrotation Yrotation
			JOINT Chest
			{
				OFFSET -0.0000 7.5501 -0.8160
				CHANNELS 3 Zrotation Xrotation Yrotation
				JOINT Neck1
				{
					OFFSET -0.1817 26.3113 -0.5533
					CHANNELS 3 Zrotation Xrotation Yrotation
					JOINT Neck2
					{
						OFFSET -0.0000 7.7094 2.3026
						CHANNELS 3 Zrotation Xrotation Yrotation
						JOINT Head
						{
							OFFSET -0.0000 6.1289 1.9537
							CHANNELS 3 Zrotation Xrotation Yrotation
							JOINT Jaw
							{
								OFFSET 0.0026 0.4756 3.0949
								CHANNELS 3 Zrotation Xrotation Yrotation
								End Site
								{
									OFFSET 0.0 1.0 0.0
								}
							}
							JOINT LeftEye
							{
								OFFSET 3.2064 5.3802 7.5869
								CHANNELS 3 Zrotation Xrotation Yrotation
								End Site
								{
									OFFSET 0.0 1.0 0.0
								}
							}
							JOINT RightEye
							{
								OFFSET -3.2224 5.3619 7.5582
								CHANNELS 3 Zrotation Xrotation Yrotation
								End Site
								{
									OFFSET 0.0 1.0 0.0
								}
							}
						}
					}
				}
				JOINT LeftShoulder
				{
					OFFSET 1.6217 23.2372 5.1134
					CHANNELS 3 Zrotation Xrotation Yrotation
					JOINT LeftArm
					{
						OFFSET 14.9198 0.0000 -5.5023
						CHANNELS 3 Zrotation Xrotation Yrotation
						JOINT LeftForeArm
						{
							OFFSET 28.7393 0.0000 -0.0026
							CHANNELS 3 Zrotation Xrotation Yrotation
							JOINT LeftHand
							{
								OFFSET 27.0940 -0.0000 0.0026
								CHANNELS 3 Zrotation Xrotation Yrotation
								JOINT LeftHandThumbEnd
								{
									OFFSET 12.2686 -3.2202 4.8331
									CHANNELS 3 Zrotation Xrotation Yrotation
									End Site
									{
										OFFSET 0.0 1.0 0.0
									}
								}
								JOINT LeftHandMiddleEnd
								{
									OFFSET 19.0120 -0.3129 -0.0340
									CHANNELS 3 Zrotation Xrotation Yrotation
									End Site
									{
										OFFSET 0.0 1.0 0.0
									}
								}
							}
						}
					}
				}
				JOINT RightShoulder
				{
					OFFSET -1.3801 23.1803 5.2142
					CHANNELS 3 Zrotation Xrotation Yrotation
					JOINT RightArm
					{
						OFFSET -15.0372 0.0000 -5.5456
						CHANNELS 3 Zrotation Xrotation Yrotation
						JOINT RightForeArm
						{
							OFFSET -28.7366 0.0000 -0.0026
							CHANNELS 3 Zrotation Xrotation Yrotation
							JOINT RightHand
							{
								OFFSET -27.1336 -0.0000 0.0026
								CHANNELS 3 Zrotation Xrotation Yrotation
								JOINT RightHandThumbEnd
								{
									OFFSET -12.2642 -3.2115 4.8040
									CHANNELS 3 Zrotation Xrotation Yrotation
									End Site
									{
										OFFSET 0.0 1.0 0.0
									}
								}
								JOINT RightHandMiddleEnd
								{
									OFFSET -19.0006 -0.3066 -0.0316
									CHANNELS 3 Zrotation Xrotation Yrotation
									End Site
									{
										OFFSET 0.0 1.0 0.0
									}
								}
							}
						}
					}
				}
			}
		}
	}
	JOINT LeftLeg
	{
		OFFSET 10.0432 -8.4345 2.5957
		CHANNELS 3 Zrotation Xrotation Yrotation
		JOINT LeftShin
		{
			OFFSET -0.0000 -43.2218 -0.8029
			CHANNELS 3 Zrotation Xrotation Yrotation
			JOINT LeftFoot
			{
				OFFSET 0.0000 -42.1551 -3.4815
				CHANNELS 3 Zrotation Xrotation Yrotation
				JOINT LeftToeBase
				{
					OFFSET 0.0000 -5.0595 13.2315
					CHANNELS 3 Zrotation Xrotation Yrotation
					End Site
					{
						OFFSET 0.0 1.0 0.0
					}
				}
			}
		}
	}
	JOINT RightLeg
	{
		OFFSET -10.0473 -8.2953 2.6203
		CHANNELS 3 Zrotation Xrotation Yrotation
		JOINT RightShin
		{
			OFFSET 0.0000 -43.3622 -0.8056
			CHANNELS 3 Zrotation Xrotation Yrotation
			JOINT RightFoot
			{
				OFFSET 0.0000 -42.1174 -3.4784
				CHANNELS 3 Zrotation Xrotation Yrotation
				JOINT RightToeBase
				{
					OFFSET -0.0000 -5.0796 13.2842
					CHANNELS 3 Zrotation Xrotation Yrotation
					End Site
					{
						OFFSET 0.0 1.0 0.0
					}
				}
			}
		}
	}
}
MOTION
Frames: 13
Frame Time: 0.033333
2.1027 97.7868 17.9196 2.8705 -10.5148 -8.7301 -1.5620 1.9095 0.2777 -0.3665 -4.0456 1.2679 -1.0379 9.0941 -1.0827 -6.5200 8.5121 4.9368 -0.3102 -3.4627 1.3591 1.0691 2.0758 -1.0514 0.0181 -0.0046 0.0201 0.7811 -10.5651 -3.8230 -0.7508 -10.5872 3.8606 2.9603 8.2324 -6.3975 30.2269 -1.6947 -14.8343 1.5660 0.6646 -113.4544 13.9363 -18.4459 -16.7204 -14.1252 10.4783 14.9340 -59.0618 0.9792 1.5520 -8.6863 9.0929 14.6326 -16.2403 -4.2375 27.9741 1.0022 1.6744 102.9057 -28.1033 -35.3605 28.2891 15.5732 7.5973 -16.3693 51.6910 -2.8894 -5.4333 12.8410 9.2476 19.7208 -0.1247 4.1299 -0.2867 -15.3558 -1.9412 -1.6399 1.6299 -0.0276 -2.0429 -21.6197 -0.9662 -28.7622 0.1109 10.8697 0.1642 17.1129 -3.5014 2.5694 -1.4026 -0.2445 0.7128
2.0272 97.6522 18.5008 2.9749 -11.2948 -8.7805 -1.7831 1.7595 0.3559 -0.3824 -4.0862 1.1283 -1.1076 9.0868 -1.1438 -5.6975 8.5061 4.6576 -0.3513 -3.4762 1.5146 0.9361 2.8710 -0.8241 0.0221 -0.0014 0.0185 0.7861 -10.5657 -3.8182 -0.7480 -10.5801 3.8511 3.3713 7.8069 -7.1417 28.6936 -3.5936 -16.5193 2.0238 0.7464 -113.0833 15.1805 -21.0971 -18.2063 -14.2056 10.4299 14.8151 -59.3292 0.9792 1.5288 -8.6203 9.0072 14.7798 -18.4738 -6.3725 28.6546 0.9571 1.4292 102.8933 -30.3797 -37.3074 28.8370 15.6598 7.5331 -16.3683 51.9128 -2.8554 -5.5083 13.1785 10.8478 19.9679 -0.1495 3.1949 -0.2788 -15.5188 -1.9077 -1.7664 1.6313 0.2113 -2.0691 -22.3442 -0.2765 -28.9296 0.1288 11.2909 0.1686 17.2331 -3.7479 2.7249 -1.4044 -0.0672 0.7337
1.9239 97.3764 19.0558 3.1864 -12.4064 -8.9625 -2.0881 1.7445 0.4395 -0.4117 -4.0607 1.0397 -1.2483 9.3740 -1.1364 -4.8994 8.9759 4.3542 -0.4062 -3.4640 1.6535 0.8912 3.6073 -0.6278 0.0240 0.0102 -0.0012 0.7865 -10.5372 -3.8256 -0.7443 -10.5475 3.8187 3.5296 7.6505 -7.8166 27.1274 -5.2991 -18.2693 2.2551 0.9517 -112.8189 16.7055 -22.8868 -19.4799 -14.3064 10.3806 14.6770 -59.3199 0.9844 1.5642 -8.1078 9.0330 14.9359 -19.5827 -8.0296 29.6164 0.8237 1.4742 102.7193 -32.1300 -38.8895 28.9656 15.6324 7.4632 -16.3322 51.9144 -2.8576 -5.4830 13.5788 12.5196 20.2649 -0.1703 2.8599 -0.2663 -15.6845 -2.2394 -1.8735 1.6291 0.4420 -2.0851 -23.3812 0.1656 -29.1547 0.1679 12.4860 0.2134 17.4878 -4.4564 3.1124 -1.4063 0.0409 0.7590
1.8465 97.0579 19.6592 3.4984 -13.7044 -9.3456 -2.3900 1.7357 0.5715 -0.4506 -4.0442 0.9924 -1.4811 9.8172 -1.0554 -4.3256 10.0413 4.1517 -0.4501 -3.4574 1.7465 0.9176 4.4671 -0.4751 0.0264 0.0196 -0.0181 0.7895 -10.5117 -3.8320 -0.7422 -10.5221 3.7929 3.2682 7.5923 -8.1986 26.0010 -6.5361 -20.1531 2.2212 1.0881 -112.4777 18.3094 -23.7743 -20.3371 -14.3988 10.3863 14.5677 -59.1770 1.0179 1.5868 -7.3008 9.1659 15.1308 -19.6835 -9.3549 30.5203 0.8392 1.7907 102.5036 -33.5313 -39.6758 28.5361 15.4611 7.4506 -16.3338 51.7270 -2.8967 -5.4038 13.9746 14.3981 20.5840 -0.1787 2.7153 -0.2573 -15.7793 -2.6756 -1.8860 1.6316 0.5677 -2.1086 -24.6450 0.6027 -29.3702 0.2098 13.8543 0.2738 17.8768 -5.3165 3.6198 -1.4059 0.0991 0.7951
1.7990 96.7527 20.2866 3.7829 -15.0242 -9.8287 -2.5909 1.6214 0.6897 -0.4736 -4.0687 1.0500 -1.7059 10.3050 -0.9322 -4.1101 11.6198 4.1058 -0.4703 -3.4536 1.7434 0.9628 5.5504 -0.3061 0.0281 0.0256 -0.0269 0.7885 -10.4821 -3.8317 -0.7374 -10.4934 3.7737 2.7165 7.5794 -8.2835 25.3020 -6.9358 -21.9466 2.1112 1.2783 -111.9489 19.6385 -23.6512 -20.6803 -14.4379 10.4627 14.5098 -59.0107 1.0490 1.5977 -6.4124 9.4183 15.3440 -19.0489 -10.1787 31.1668 0.8499 2.0648 102.1309 -34.3685 -39.6855 27.6244 15.1312 7.4593 -16.3600 51.4614 -2.9542 -5.3121 14.4209 16.3535 20.9306 -0.1779 2.5642 -0.2504 -15.8090 -3.0616 -1.8051 1.6383 0.6213 -2.1250 -25.8911 1.2274 -29.5550 0.2437 14.9695 0.3397 18.2535 -6.0440 4.0994 -1.4035 0.1081 0.8095
1.7544 96.4900 20.9135 3.9943 -16.2577 -10.3069 -2.6818 1.4273 0.8031 -0.5048 -4.1558 1.1120 -1.8589 10.7239 -0.7265 -4.1438 13.4950 4.2277 -0.4741 -3.4355 1.6850 0.9406 6.8869 -0.1371 0.0283 0.0276 -0.0290 0.7899 -10.4699 -3.8320 -0.7383 -10.4825 3.7696 2.2137 7.5396 -8.1800 24.8018 -6.6114 -23.4057 1.9467 1.4781 -111.2969 20.5219 -23.2199 -20.6637 -14.4397 10.5558 14.4635 -59.0277 1.1223 1.6044 -5.6373 9.7479 15.5719 -17.9947 -10.4009 31.4523 0.8357 2.3021 101.7759 -34.6002 -39.2864 26.4714 14.8457 7.4917 -16.3792 51.2270 -2.9988 -5.2214 14.9009 18.2747 21.2129 -0.1737 2.3896 -0.2236 -15.8472 -3.4029 -1.6216 1.6444 0.6765 -2.1326 -27.0151 2.0648 -29.6986 0.2616 15.6995 0.3714 18.6066 -6.5873 4.4686 -1.4020 0.1142 0.8219
1.6922 96.2803 21.5380 4.1229 -17.2866 -10.7141 -2.7016 1.1644 0.8878 -0.5425 -4.2780 1.1991 -1.9187 11.0070 -0.4975 -4.3299 15.4033 4.4382 -0.4721 -3.4083 1.6149 0.8578 8.3319 0.0118 0.0257 0.0269 -0.0240 0.7868 -10.4650 -3.8278 -0.7406 -10.4784 3.7756 1.8246 7.5120 -7.9501 24.4672 -5.9404 -24.5819 1.6362 1.7758 -110.6562 21.1826 -22.9376 -20.4850 -14.4530 10.5860 14.4463 -59.1103 1.1912 1.6059 -4.9839 10.0905 15.8092 -16.8938 -10.1428 31.4914 0.8319 2.5274 101.4890 -34.4770 -38.8659 25.4399 14.7039 7.5082 -16.3777 51.1205 -3.0257 -5.1413 15.3755 19.9441 21.4557 -0.1716 2.2593 -0.1941 -15.9115 -3.7126 -1.3510 1.6512 0.7067 -2.1215 -27.9196 3.0120 -29.8247 0.2728 16.0583 0.3800 18.9219 -6.9393 4.6660 -1.4014 0.1214 0.8302
1.6360 96.1452 22.0912 4.1544 -18.0763 -10.9993 -2.6652 0.8912 0.9561 -0.5936 -4.4236 1.2756 -1.9179 11.1582 -0.2801 -4.5360 17.1223 4.7009 -0.4763 -3.3708 1.5113 0.7447 9.6882 0.1415 0.0226 0.0252 -0.0235 0.7901 -10.4466 -3.8247 -0.7507 -10.4595 3.7748 1.6371 7.4609 -7.6922 24.3269 -5.0613 -25.4002 1.3613 2.1187 -110.1090 21.7925 -22.9301 -20.3325 -14.4798 10.6274 14.4427 -59.2590 1.2539 1.6266 -4.5327 10.3424 16.0218 -15.8846 -9.6413 31.3989 0.7306 2.7715 101.2854 -34.3147 -38.7583 24.6596 14.5695 7.5219 -16.3602 51.0733 -3.0474 -5.0586 15.8797 21.2503 21.7213 -0.1746 2.1555 -0.1759 -15.9641 -3.9708 -1.1291 1.6567 0.7300 -2.0922 -28.5897 3.9379 -29.9892 0.2801 16.1421 0.3952 19.1899 -7.1624 4.7722 -1.4006 0.1154 0.8466
1.5286 96.0343 22.5887 4.0946 -18.6079 -11.1606 -2.6110 0.6295 0.9729 -0.6270 -4.5627 1.3539 -1.8837 11.1740 -0.1251 -4.7546 18.5385 4.9630 -0.4607 -3.3618 1.3753 0.6101 10.7946 0.2646 0.0243 0.0230 -0.0362 0.7984 -10.4354 -3.8353 -0.7554 -10.4441 3.7568 1.6890 7.2555 -7.3891 24.1828 -4.1475 -26.0588 1.0961 2.3965 -109.7196 22.3849 -23.1357 -20.2054 -14.5148 10.6729 14.4557 -59.3535 1.3081 1.6406 -4.3167 10.4616 16.1884 -15.0934 -9.2251 31.3244 0.5876 2.8253 101.1503 -33.9693 -38.7139 23.9135 14.4219 7.5404 -16.3547 51.0409 -3.0339 -5.0170 16.3519 22.1842 21.9395 -0.1755 2.0774 -0.1610 -16.0146 -4.1560 -0.9637 1.6641 0.6873 -2.0636 -28.9983 4.7681 -30.2217 0.2831 15.9835 0.4207 19.3967 -7.2563 4.8207 -1.3999 0.0982 0.8567
1.4094 95.9976 23.0019 3.9461 -18.8685 -11.2293 -2.5458 0.4238 0.9710 -0.6447 -4.6818 1.3862 -1.8148 11.0973 0.0125 -4.9332 19.5843 5.2051 -0.4607 -3.3632 1.2166 0.4872 11.6550 0.3026 0.0293 0.0238 -0.0517 0.8128 -10.4268 -3.8510 -0.7598 -10.4280 3.7391 1.9596 7.0437 -7.1373 24.1798 -3.3932 -26.4932 0.8452 2.7105 -109.6075 22.9923 -23.5618 -20.2059 -14.5148 10.7105 14.4678 -59.4138 1.3188 1.6609 -4.3465 10.4386 16.3044 -14.6892 -9.0479 31.2173 0.5458 2.7042 101.3225 -33.6094 -38.7895 23.3065 14.3045 7.5274 -16.3803 51.0206 -3.0476 -5.0237 16.7845 22.6837 22.1432 -0.1727 2.0515 -0.1422 -16.1133 -4.2795 -0.8842 1.6695 0.6180 -2.0416 -29.1204 5.4607 -30.4282 0.2854 15.6527 0.4316 19.4788 -7.2449 4.7599 -1.4034 0.0892 0.8650
1.2605 96.0149 23.3028 3.7178 -18.8300 -11.2232 -2.4643 0.3013 0.9420 -0.6568 -4.7480 1.3935 -1.7181 10.8834 0.1145 -5.0781 20.2618 5.3395 -0.4912 -3.3599 1.0882 0.3477 12.2766 0.2934 0.0353 0.0244 -0.0649 0.8226 -10.4187 -3.8643 -0.7579 -10.4139 3.7237 2.4629 6.9293 -6.9160 24.3499 -2.7765 -26.6650 0.6671 3.0519 -109.8567 23.6138 -24.0992 -20.2898 -14.4713 10.7104 14.4521 -59.3867 1.3054 1.6864 -4.6466 10.3105 16.3600 -14.7332 -8.9992 30.9672 0.4230 2.4112 101.9063 -33.1829 -39.2058 23.0272 14.2690 7.5038 -16.3847 51.0810 -3.0698 -5.0237 17.1651 22.7452 22.3329 -0.1688 2.0491 -0.1499 -16.2488 -4.3090 -0.8078 1.6682 0.5121 -2.0376 -28.9087 5.9867 -30.5314 0.2829 15.1796 0.4485 19.4173 -7.1211 4.5682 -1.4060 0.0833 0.8736
1.0930 96.1128 23.4393 3.4473 -18.4370 -11.2310 -2.3772 0.2626 0.8851 -0.6604 -4.7726 1.3724 -1.6230 10.5351 0.1517 -5.1863 20.6349 5.4028 -0.5435 -3.3616 0.9776 0.1859 12.6156 0.2566 0.0435 0.0220 -0.0790 0.8336 -10.4172 -3.8783 -0.7527 -10.4076 3.7061 3.2095 6.9418 -6.6976 24.5940 -2.3890 -26.5321 0.5177 3.2321 -110.4846 24.2262 -24.7990 -20.5130 -14.3497 10.6956 14.4331 -59.1970 1.2753 1.6817 -5.2951 10.0877 16.3116 -15.1354 -9.1255 30.5483 0.2574 1.9169 102.9462 -32.6927 -39.8059 23.1077 14.3492 7.4939 -16.4373 51.2286 -3.0970 -5.0498 17.4085 22.2719 22.5012 -0.1718 2.1403 -0.1766 -16.3887 -4.2952 -0.7380 1.6595 0.3602 -2.0303 -28.3367 6.2585 -30.4361 0.2706 14.5807 0.4479 19.2462 -6.9307 4.2982 -1.4058 0.0631 0.8713
0.9802 96.3062 23.4009 3.1505 -17.6553 -11.2726 -2.2781 0.3241 0.8223 -0.6628 -4.7679 1.3361 -1.5522 10.0746 0.0831 -5.2357 20.7810 5.3900 -0.6015 -3.3567 0.8438 -0.0194 12.5735 0.2794 0.0530 0.0160 -0.0993 0.8455 -10.4120 -3.8997 -0.7463 -10.4015 3.6847 4.1698 6.9549 -6.5076 24.7250 -2.1332 -26.0967 0.4321 3.1396 -111.4990 24.7633 -25.6210 -20.9767 -14.1899 10.6752 14.4294 -58.9400 1.2426 1.6725 -6.2345 9.8132 16.1186 -15.8510 -9.2706 29.8421 -0.0708 1.3722 104.4495 -32.0225 -40.4301 23.4064 14.5000 7.5432 -16.5311 51.5004 -3.1101 -5.0878 17.4709 21.2107 22.6361 -0.1715 2.3651 -0.2252 -16.5042 -4.1919 -0.6511 1.6484 0.1134 -2.0185 -27.3898 6.2387 -30.0783 0.2484 13.8339 0.4460 18.9542 -6.6204 3.9578 -1.4042 0.0004 0.8592
